<svg width="211" height="90" viewBox="0 0 211 90" fill="none" xmlns="http://www.w3.org/2000/svg">
<path d="M179.304 26.4414L179.293 26.11V25.7787L179.326 25.4445L179.334 25.1103L179.273 24.7817L179.267 24.4475L179.201 24.1189L179.237 23.782L179.212 23.4506L179.139 23.1248L179.053 22.7989L178.989 22.4731L178.983 22.139L178.88 21.8187L178.816 21.4929L178.839 21.1504L178.758 20.8273L178.644 20.5126L178.605 20.1785L178.465 19.8721L178.435 19.538L178.346 19.2149L178.276 18.8891L178.123 18.5884L178.025 18.2709L177.928 17.9534L177.842 17.6332L177.755 17.3101L177.647 16.9955L177.432 16.7226L177.349 16.3995L177.232 16.0876L177.056 15.8008L176.998 15.4639L176.781 15.1965L176.714 14.8596L176.519 14.5894L176.341 14.3054L176.179 14.0158L176.107 13.6788L175.867 13.431L175.736 13.1219L175.566 12.8378L175.422 12.5371L175.182 12.2948L175.021 12.0024L174.884 11.6961L174.65 11.4538L174.466 11.1753L174.263 10.9135L174.079 10.6378L173.907 10.351L173.715 10.0781L173.495 9.83025L173.297 9.56292L173.043 9.34013L172.865 9.0533L172.578 8.86394L172.375 8.60217L172.133 8.37382L171.938 8.10092L171.665 7.90319L171.437 7.6637L171.219 7.41028L170.98 7.18193L170.713 6.98143L170.481 6.74194L170.228 6.52751L169.991 6.29637L169.718 6.10422L169.501 5.84245L169.234 5.64753L168.936 5.4888L168.722 5.22424L168.412 5.08221L168.19 4.82323L167.917 4.63387L167.602 4.50576L167.349 4.28856L167.042 4.15209L166.781 3.94323L166.513 3.74274L166.215 3.59514L165.926 3.43084L165.614 3.30553L165.33 3.13566L165.034 2.9825L164.75 2.81262L164.433 2.70681L164.135 2.55921L163.845 2.3949L163.547 2.24731L163.247 2.11086L162.929 2.00225L162.626 1.87138L162.311 1.76277L162.024 1.58732L161.693 1.52605L161.375 1.42859L161.055 1.33948L160.746 1.21973L160.445 1.06379L160.105 1.0415L159.785 0.960751L159.482 0.807591L159.156 0.740742L158.83 0.676698L158.504 0.609866L158.176 0.56253L157.85 0.498468L157.529 0.401008L157.193 0.398221L156.881 0.261769L156.538 0.297973L156.21 0.253407L155.886 0.153159L155.558 0.103035L155.224 0.0891148L154.892 0.100248L154.561 0.0779818L154.227 0.0835398L153.898 0.0250704L153.564 0.0473364L153.233 0.0194955L152.898 0.0139205L152.567 0.0556989L152.236 0L151.904 0.0751943L151.57 0.0529114L151.239 0.0584864L150.905 0.0473364L150.57 0.0724069L150.245 0.155947L149.908 0.128106L149.585 0.233929L149.248 0.214433L148.93 0.342522L148.604 0.403796L148.27 0.434424L147.947 0.504043L147.607 0.498468L147.295 0.629362L146.972 0.712902L146.652 0.796441L146.324 0.849353L145.998 0.924547L145.672 0.983033L145.363 1.11112L145.057 1.24757L144.711 1.25872L144.402 1.38681L144.107 1.54833L143.781 1.62074L143.472 1.74048L143.177 1.89922L142.87 2.02454L142.556 2.13592L142.263 2.29465L141.943 2.39213L141.623 2.48959L141.33 2.65111L141.049 2.82932L140.743 2.96022L140.453 3.12453L140.175 3.30831L139.863 3.42806L139.593 3.62578L139.275 3.74274L138.988 3.90982L138.752 4.15767L138.479 4.34703L138.167 4.47792L137.883 4.65058L137.613 4.84551L137.343 5.03766L137.103 5.27158L136.836 5.4693L136.535 5.62525L136.298 5.86195L136.056 6.0903L135.772 6.26574L135.558 6.52751L135.268 6.70017L135.065 6.9703L134.811 7.1875L134.597 7.4437L134.307 7.62193L134.101 7.88648L133.881 8.13433L133.65 8.37103L133.436 8.62445L133.149 8.81382L132.993 9.12014L132.756 9.35406L132.547 9.61305L132.325 9.85811L132.096 10.1004L131.912 10.3789L131.737 10.6601L131.486 10.8885L131.308 11.1697L131.096 11.4287L130.927 11.7155L130.723 11.9801L130.59 12.2892L130.409 12.5649L130.186 12.8211L130.094 13.1525L129.907 13.4254L129.712 13.6983L129.579 14.0046L129.459 14.3165L129.231 14.5699L129.108 14.8818L128.969 15.1826L128.869 15.5028L128.69 15.7869L128.612 16.1155L128.456 16.4079L128.301 16.7031L128.178 17.0122L128.1 17.338L127.991 17.6527L127.844 17.9507L127.805 18.2876L127.685 18.5967L127.543 18.903L127.49 19.2317L127.412 19.5547L127.29 19.8666L127.234 20.1952L127.086 20.5015L127.042 20.8329L127.02 21.1671L126.9 21.4818L126.83 21.8076V22.1445L126.744 22.4676L126.727 22.7989L126.716 23.1331L126.63 23.4561L126.56 23.7847L126.549 24.1161L126.513 24.4475L126.552 24.7817L126.518 25.1131L126.465 25.4445L126.451 25.7759L126.51 26.11L126.457 26.4414L126.426 26.7728L126.482 27.1014L126.44 27.4328L126.49 27.7614L126.446 28.0928L126.432 28.4214L126.463 28.7528L126.468 29.0814L126.435 29.4128L126.424 29.7414L126.502 30.0728L126.479 30.4042L126.424 30.7328L126.443 31.0642L126.482 31.3928L126.49 31.7241L126.449 32.0527L126.485 32.3841L126.432 32.7128L126.482 33.0441L126.432 33.3727L126.515 33.7013L126.518 34.0299L126.465 34.3613L126.49 34.6899L126.479 35.0185L126.521 35.3499L126.502 35.6813L126.513 36.0099L126.426 36.3413L126.463 36.6699L126.454 37.0013L126.429 37.3299L126.474 37.6613L126.46 37.9927L126.443 38.3213L126.504 38.6527L126.476 38.9841L126.44 39.3154L126.435 39.644L126.46 39.9754L126.496 40.3068L126.446 40.6382L126.513 40.9696L126.46 41.301L126.451 41.6296L126.443 41.961L126.432 42.2924L126.513 42.621L126.465 42.9524L126.496 43.2837L126.451 43.6151L126.51 43.9493L126.513 44.2807L126.443 44.6121L126.451 44.9463L126.443 45.3027L126.805 45.2916L127.142 45.3222L127.479 45.2665L127.813 45.2971L128.15 45.3194L128.484 45.2693L128.821 45.3306L129.155 45.2637L129.495 45.2888L129.832 45.3083L130.169 45.2916L130.506 45.2804L130.84 45.2777H131.177L131.514 45.2916L131.851 45.2554L132.188 45.3027L132.525 45.2331H132.862L133.199 45.3027L133.539 45.2916L133.876 45.3055L134.213 45.3111L134.55 45.2693L134.887 45.2832L135.226 45.2582L135.563 45.2609L135.9 45.2387L136.237 45.2637L136.574 45.2749L136.911 45.2609L137.251 45.2777L137.588 45.3083L137.925 45.325L138.264 45.2999L138.601 45.2888L138.941 45.2387L139.281 45.2331L139.626 45.286L139.573 44.9463L139.593 44.6177L139.601 44.2863L139.615 43.9577L139.651 43.6291L139.615 43.2977L139.612 42.9691L139.615 42.6377L139.66 42.3091L139.637 41.9777L139.662 41.6463L139.601 41.3177L139.57 40.9863L139.635 40.6577L139.587 40.3263L139.576 39.9949L139.632 39.6663L139.587 39.3349L139.584 39.0063L139.629 38.6777L139.668 38.3463L139.612 38.0177L139.654 37.6891L139.621 37.3605L139.671 37.0292L139.674 36.7005L139.609 36.3691L139.598 36.0405L139.57 35.7092L139.598 35.3778L139.646 35.0492L139.596 34.7206L139.593 34.3892L139.626 34.0578L139.609 33.7264L139.579 33.3978L139.568 33.0664L139.657 32.7378L139.579 32.4064L139.648 32.075L139.665 31.7436L139.668 31.4123L139.587 31.0809L139.593 30.7523L139.59 30.4209L139.671 30.0895L139.637 29.7581L139.615 29.4295L139.598 29.0981L139.668 28.7667L139.59 28.4353L139.576 28.1039L139.637 27.7698L139.665 27.4412L139.593 27.107L139.579 26.7756L139.643 26.4414L139.579 26.4386L139.671 26.1128L139.679 25.7814L139.632 25.4473L139.662 25.1187L139.724 24.7901L139.81 24.4698L139.852 24.1412L139.874 23.8098L139.977 23.4924L139.985 23.1554L140.105 22.8435L140.214 22.5288L140.356 22.2281L140.47 21.919L140.551 21.5959L140.643 21.2757L140.776 20.9721L140.966 20.6964L141.049 20.3651L141.208 20.0754L141.42 19.8137L141.595 19.5352L141.762 19.2484L141.896 18.9393L142.107 18.6831L142.361 18.4603L142.525 18.1679L142.759 17.934L142.915 17.6304L143.141 17.3853L143.408 17.1821L143.639 16.9453L143.876 16.7142L144.121 16.4914L144.374 16.2798L144.597 16.0292L144.862 15.8287L145.129 15.6337L145.402 15.4444L145.689 15.2773L145.962 15.0851L146.243 14.9097L146.532 14.7454L146.842 14.6229L147.12 14.4418L147.44 14.3388L147.749 14.2191L148.031 14.0353L148.37 13.9963L148.663 13.832L148.989 13.7596L149.312 13.6872L149.624 13.573L149.949 13.5201L150.264 13.4115L150.593 13.3613L150.921 13.3168L151.253 13.3057L151.581 13.2639L151.904 13.1692L152.236 13.172L152.567 13.1497L152.898 13.1274L153.23 13.1887H153.561L153.89 13.2388L154.221 13.2277L154.555 13.2221L154.878 13.3084L155.199 13.3975L155.533 13.4143L155.85 13.5145L156.184 13.534L156.491 13.6732L156.811 13.7623L157.115 13.8932L157.435 13.9824L157.741 14.1021L158.064 14.1912L158.368 14.3221L158.643 14.5142L158.955 14.6312L159.242 14.7927L159.521 14.9765L159.833 15.0963L160.122 15.2578L160.356 15.5056L160.626 15.695L160.919 15.8565L161.155 16.0904L161.403 16.3104L161.69 16.4831L161.941 16.6975L162.158 16.9509L162.4 17.1793L162.637 17.4076L162.832 17.6777L163.032 17.9395L163.274 18.1679L163.456 18.4463L163.717 18.6664L163.854 18.9755L164.079 19.2233L164.232 19.5185L164.425 19.7886L164.564 20.0922L164.736 20.3734L164.881 20.6742L164.99 20.9888L165.096 21.3007L165.246 21.5959L165.332 21.919L165.466 22.2197L165.55 22.54L165.697 22.8407L165.775 23.1638L165.889 23.4756L165.901 23.8126L166.023 24.1273L166.026 24.4642L166.045 24.7956L166.126 25.1187L166.157 25.4473L166.109 25.7814L166.168 26.11L166.137 26.4442L166.187 26.4414L166.19 26.7728L166.229 27.1014L166.204 27.4328L166.201 27.7614L166.137 28.0928L166.204 28.4214L166.201 28.7528L166.157 29.0814L166.193 29.4128V29.7414L166.148 30.0728L166.165 30.4042L166.199 30.7328L166.165 31.0642L166.19 31.3928L166.229 31.7241L166.182 32.0527L166.221 32.3841L166.226 32.7128L166.132 33.0441L166.134 33.3727L166.165 33.7013L166.134 34.0299L166.182 34.3613L166.165 34.6899L166.157 35.0185L166.179 35.3499L166.162 35.6813L166.154 36.0099L166.148 36.3413L166.151 36.6699L166.21 37.0013L166.221 37.3299L166.14 37.6613L166.134 37.9927L166.165 38.3213L166.182 38.6527V38.9841V39.3154L166.134 39.644L166.132 39.9754L166.226 40.3068L166.185 40.6382L166.19 40.9696L166.137 41.301L166.19 41.6296L166.179 41.961L166.157 42.2924L166.21 42.621L166.218 42.9524L166.196 43.2837L166.151 43.6151L166.134 43.9493L166.151 44.2807L166.162 44.6121L166.196 44.9463L166.215 45.2414L166.516 45.3111L166.853 45.3083L167.187 45.2888L167.524 45.3027L167.858 45.2971L168.195 45.2442L168.532 45.3055L168.866 45.2944L169.203 45.2247L169.543 45.2637L169.88 45.2582L170.214 45.2971L170.551 45.3027L170.888 45.3055L171.225 45.2442L171.562 45.2637L171.899 45.3166L172.236 45.2944L172.573 45.2554L172.91 45.2414L173.25 45.2554L173.587 45.2749L173.923 45.2637L174.26 45.2359L174.597 45.2442L174.934 45.2749L175.274 45.2359L175.611 45.247L175.948 45.325L176.285 45.2749L176.622 45.2609L176.962 45.2498L177.299 45.325L177.636 45.2387L177.975 45.3222L178.312 45.2359L178.652 45.2749L178.992 45.3111L179.34 45.286L179.373 44.9463L179.326 44.6177L179.332 44.2863L179.304 43.9577L179.368 43.6291L179.382 43.2977L179.362 42.9691L179.337 42.6377L179.329 42.3091L179.373 41.9777L179.284 41.6463V41.3177L179.318 40.9863L179.343 40.6577L179.329 40.3263L179.306 39.9949L179.37 39.6663L179.379 39.3349L179.337 39.0063L179.326 38.6777L179.359 38.3463L179.337 38.0177L179.373 37.6891L179.362 37.3605L179.329 37.0292L179.304 36.7005L179.379 36.3691L179.329 36.0405L179.315 35.7092L179.323 35.3778L179.312 35.0492L179.37 34.7206L179.315 34.3892L179.345 34.0578L179.362 33.7264L179.329 33.3978L179.348 33.0664L179.284 32.7378L179.287 32.4064L179.348 32.075L179.376 31.7436L179.326 31.4123L179.365 31.0809L179.351 30.7523L179.29 30.4209L179.334 30.0895L179.354 29.7581L179.312 29.4295L179.376 29.0981L179.34 28.7667L179.309 28.4353L179.32 28.1039L179.368 27.7698L179.365 27.4412L179.332 27.107L179.345 26.7756L179.359 26.4386L179.304 26.4414Z" fill="#FFB319"/>
<path d="M173.776 27.7921C173.549 27.7925 173.331 27.7062 173.167 27.5508C173.002 27.3954 172.903 27.1828 172.89 26.9567L172.86 26.2161V25.9236L172.843 25.6674L172.79 25.2858L172.751 24.6704L172.692 24.275V23.9965L172.654 23.7654L172.564 23.4257L172.328 22.1753L172.205 21.8022L172.077 21.2202L171.838 20.5462L171.774 20.2844L171.434 19.449L171.127 18.7724L171.036 18.4939L170.782 17.9731L170.601 17.6417L170.484 17.3855L169.927 16.5027L169.802 16.2465L169.665 16.0349L169.443 15.7341L169.278 15.4724L168.721 14.7121L168.329 14.2164L168.086 13.9379L167.914 13.7123L167.685 13.4784L167.479 13.2473L167.276 13.0468L166.956 12.7461L166.778 12.5288L166.354 12.1251L165.781 11.6683L165.577 11.4623L165.38 11.3008L164.266 10.4988L164.065 10.3344L163.787 10.1813L163.18 9.80261L162.937 9.62992L162.709 9.4934L161.595 8.90857L161.269 8.78334L160.696 8.52159L159.71 8.14276L159.462 8.02582L159.228 7.95063L158.872 7.85871L157.961 7.58023L157.351 7.43555L156.967 7.36308L156.688 7.28231L156.432 7.23213L156.04 7.1821L155.744 7.1152L155.494 7.07903H155.168L154.458 7.02328L154.149 6.98153L153.87 6.96209H153.564H153.255H152.896C152.779 6.961 152.664 6.9369 152.556 6.89124C152.449 6.84559 152.352 6.77925 152.27 6.69598C152.188 6.61272 152.124 6.51415 152.08 6.40595C152.036 6.29775 152.014 6.18199 152.016 6.06533C152.018 5.83118 152.112 5.60736 152.279 5.44256C152.445 5.27777 152.67 5.18542 152.904 5.18543H153.244H153.556H153.973L154.358 5.21603L154.664 5.25777L155.705 5.32739L156.104 5.38872L156.382 5.45276L156.741 5.49451L157.134 5.57528L157.412 5.65604L157.752 5.71723L158.443 5.88163L160.181 6.41071L160.459 6.5388L161.417 6.90362L161.996 7.16809L162.369 7.3129L163.609 7.96463L163.962 8.17907L164.205 8.35162L165.137 8.92258L165.636 9.31242L166.485 9.92227L166.811 10.2007L167.006 10.3957L167.563 10.8385L168.12 11.3704L168.293 11.5793L168.526 11.7908L168.805 12.0693L169.014 12.3033L169.292 12.6013L169.479 12.8436L169.718 13.122L170.554 14.1914L170.793 14.5312L170.952 14.7818L171.169 15.0741L171.4 15.4445L171.523 15.698L172.08 16.6113L172.208 16.8898L172.52 17.4858L172.709 17.9006L172.804 18.1791L173.227 19.1176L173.506 19.8361L173.572 20.1146L173.812 20.794L173.954 21.4235L174.074 21.791L174.207 22.4649L174.322 23.0832L174.419 23.4702L174.486 23.9075V24.1859L174.542 24.5508L174.581 25.1829L174.634 25.5476L174.656 25.9626V26.2717L174.684 26.8982C174.696 27.1328 174.615 27.3628 174.458 27.538C174.302 27.7132 174.083 27.8197 173.848 27.834L173.776 27.7921Z" fill="white"/>
<path d="M184.06 85.0911L183.759 85.1078L183.425 85.1106L183.091 85.1023L182.756 85.158L182.425 85.1385L182.091 85.0828L181.757 85.1023L181.425 85.1608L181.091 85.1357L180.757 85.1552L180.425 85.0911L180.091 85.1301L179.76 85.1413L179.426 85.0883L179.092 85.1468L178.76 85.1608L178.426 85.0883L178.092 85.1106L177.76 85.1246L177.426 85.1635L177.095 85.183L176.761 85.0939L176.427 85.1134L176.095 85.1691L175.761 85.1635L175.43 85.1385L175.095 85.1496L174.761 85.1468L174.427 85.0772L174.093 85.1413L173.762 85.0883L173.427 85.0716L173.093 85.1496L172.759 85.0939L172.428 85.1246L172.093 85.1691L171.759 85.0939L171.428 85.1357L171.094 85.1134L170.762 85.08L170.431 85.1023L170.097 85.1218L169.765 85.1524L169.434 85.0605L169.1 85.0883L168.768 85.1134L168.437 85.0995L168.103 85.119L167.771 85.1663L167.44 85.0633L167.109 85.1273L166.777 85.1162L166.443 85.1218L166.112 85.0661L165.78 85.0856L165.449 85.1747L165.115 85.144L164.783 85.0911L164.452 85.1524L164.121 85.1608L163.786 85.1301L163.455 85.0967L163.121 85.1802L162.79 85.0661L162.455 85.0995L162.124 85.1385L161.79 85.0939L161.458 85.0605L161.124 85.0883L160.79 85.1608L160.456 85.1162L160.122 85.0605L159.788 85.1078L159.456 85.0661L159.122 85.1552L158.788 85.0633L158.454 85.183L158.122 85.1329L157.788 85.0716L157.454 85.0828L157.122 85.119L156.788 85.1329L156.457 85.08L156.123 85.1023L155.791 85.1608L155.457 85.0689L155.126 85.158L154.792 85.0967L154.46 85.1106L154.126 85.1747L153.795 85.1357L153.461 85.1635L153.126 85.1385L152.795 85.183L152.461 85.1385L152.127 85.0883L151.792 85.1218L151.458 85.1301L151.124 85.1051L150.79 85.1106L150.456 85.1162L150.124 85.1385L149.79 85.183L149.456 85.1134L149.122 85.1858L148.788 85.1078L148.456 85.1719L148.122 85.0939L147.788 85.0689L147.457 85.1858L147.122 85.1357L146.788 85.1858L146.454 85.1329L146.123 85.0689L145.788 85.0633L145.454 85.1608L145.12 85.1078L144.786 85.1134L144.452 85.1775L144.118 85.1051L143.783 85.0661H143.449L143.115 85.0967L142.781 85.1802L142.447 85.119L142.115 85.1524L141.781 85.1106L141.447 85.1246L141.113 85.0633L140.779 85.0661L140.444 85.0995L140.11 85.119L139.776 85.183L139.442 85.0967L139.108 85.1802L138.774 85.0689L138.439 85.0605L138.105 85.0967L137.771 85.1218L137.437 85.1301L137.103 85.1385L136.769 85.1078L136.434 85.1496L136.1 85.1357L135.766 85.0967L135.432 85.1162L135.098 85.1301L134.761 85.0967L134.429 85.1608L134.095 85.1246L133.761 85.1524L133.427 85.0716L133.095 85.0828L132.761 85.1691L132.427 85.1246L132.093 85.1301L131.759 85.0911L131.425 85.183L131.09 85.1608L130.756 85.1218L130.422 85.0883L130.088 85.1775L129.754 85.1134L129.42 85.1496L129.085 85.1691L128.751 85.1162L128.414 85.1329L128.08 85.0939L127.746 85.1524L127.412 85.1273L127.075 85.144L126.741 85.1608L126.406 85.1663L126.072 85.1719L125.735 85.1301L125.401 85.1134L125.067 85.08L124.73 85.1246L124.396 85.1802L124.062 85.1106L123.725 85.1385L123.391 85.0856L123.054 85.119L122.719 85.0856L122.382 85.1719L122.045 85.1385L121.683 85.1496L121.75 84.7904L121.753 84.4562L121.703 84.122L121.695 83.7907L121.728 83.4565L121.647 83.1251L121.764 82.7909L121.672 82.4595L121.664 82.1281L121.745 81.794L121.747 81.4626L121.734 81.1312L121.767 80.7998L121.764 80.4684L121.678 80.137L121.728 79.8029L121.753 79.4715L121.653 79.1401L121.77 78.8087L121.706 78.4773L121.711 78.1459L121.731 77.8145L121.767 77.4831L121.745 77.1517L121.653 76.8204L121.714 76.489L121.675 76.1548L121.672 75.8234L121.647 75.492L121.664 75.1606L121.728 74.8292L121.714 74.4979L121.711 74.1637L121.717 73.8323L121.689 73.5009L121.664 73.1667L121.653 72.8353L121.686 72.5012L121.761 72.1698L121.734 71.8356L121.681 71.5014L121.759 71.1701L121.656 70.8359L121.664 70.5017L121.767 70.1675L121.725 69.8362L121.717 69.502L121.747 69.1706L121.67 68.8364L121.75 68.505L121.681 68.1708L121.731 67.8395L121.717 67.5081L121.714 67.1739L121.689 66.8425L121.764 66.5111L121.667 66.177L121.658 65.8456L121.664 65.5142L121.703 65.18L121.714 64.8486L121.747 64.5144L121.761 64.183L121.7 63.8489L121.731 63.5147L121.728 63.1833L121.647 62.8491L121.658 62.515L121.672 62.1836L121.742 61.8494L121.695 61.5152L121.7 61.1811L121.731 60.8497L121.683 60.5155L121.7 60.1813L121.734 59.8499L121.703 59.5158L121.695 59.1844L121.761 58.8502L121.683 58.5188L121.739 58.1846L121.672 57.8505L121.725 57.5191L121.656 57.1849L121.689 56.8507L121.678 56.5166L121.658 56.1852L121.764 55.851L121.753 55.5168L121.692 55.1827L121.703 54.8485L121.653 54.5171L121.745 54.1829L121.692 53.8488L121.686 53.5174L121.647 53.1832L121.683 52.849L121.747 52.5149L121.703 52.1835L121.731 51.8493L121.759 51.5151V51.1809L121.75 50.8468L121.764 50.5126L121.667 50.1784L121.747 49.847L121.725 49.5129L121.653 49.1787L121.703 48.8445L121.742 48.5103L121.764 48.1762L121.753 47.842L121.764 47.5078L121.753 47.1764L121.689 46.8423L121.695 46.5081L121.75 46.1739L121.658 45.8397L121.736 45.5056L121.703 45.1742L121.753 44.84L121.725 44.5086L121.731 44.1744L121.72 43.8431L121.703 43.5089L121.722 43.1747L121.647 42.8405L121.725 42.5064L121.675 42.1722L121.734 41.838L121.67 41.5066L121.764 41.1725L121.689 40.8383L121.736 40.5041L121.756 40.1699L121.647 39.8358L121.697 39.5016L121.675 39.1674L121.77 38.8333L121.725 38.4963L121.689 38.1649L121.739 37.828L121.7 37.4938L121.706 37.1596L121.656 36.8254L121.703 36.4912L121.672 36.1571L121.661 35.8229L121.697 35.4887L121.75 35.1518L121.759 34.8176L121.697 34.4834L121.747 34.1465L121.67 33.8123L121.764 33.4754L121.683 33.1384L121.714 32.8098L122.043 32.8376L122.374 32.7736L122.708 32.8488L123.042 32.7597L123.377 32.8627L123.708 32.7847L124.042 32.8293L124.376 32.7457L124.708 32.8293L125.042 32.7624L125.376 32.8237L125.707 32.8599L126.042 32.7792L126.373 32.7903L126.707 32.8098L127.041 32.846L127.373 32.8432L127.707 32.7597L128.038 32.7819L128.372 32.768L128.707 32.8209L129.038 32.8265L129.372 32.7903L129.706 32.8321L130.038 32.8237L130.372 32.7819L130.706 32.8516L131.037 32.7569L131.372 32.7764L131.706 32.8599L132.04 32.7624L132.374 32.807L132.706 32.8098L133.04 32.8042H133.374L133.708 32.8154L134.039 32.7736L134.371 32.8293L134.705 32.8098L135.036 32.8432L135.371 32.846L135.702 32.8042L136.036 32.7541L136.368 32.7652L136.699 32.8376L137.03 32.7903L137.365 32.8181L137.696 32.743L138.027 32.8571L138.359 32.7485L138.69 32.8432L139.024 32.7875L139.356 32.8627L139.687 32.8404L140.018 32.7624L140.353 32.846L140.684 32.7736L141.015 32.846L141.347 32.7708L141.681 32.7541L142.012 32.7569L142.346 32.743L142.678 32.8543L143.009 32.7513L143.343 32.7597H143.675L144.009 32.8126L144.343 32.8571L144.675 32.7541L145.009 32.8098L145.343 32.8293L145.677 32.8543L146.011 32.807L146.345 32.8348L146.68 32.8404L147.011 32.7764L147.345 32.7847L147.679 32.7485L148.011 32.7987L148.345 32.7792L148.676 32.8014L149.01 32.7624L149.345 32.8126L149.676 32.7764L150.01 32.7457L150.342 32.7652L150.676 32.743L151.007 32.7541L151.341 32.8404L151.673 32.7875L152.007 32.7402L152.338 32.8516L152.672 32.8543L153.007 32.7457L153.341 32.8627L153.672 32.7819L154.006 32.7652L154.341 32.8432L154.675 32.7764L155.009 32.7903L155.343 32.7513L155.677 32.846L156.011 32.7624L156.343 32.846L156.677 32.8209L157.011 32.8488L157.345 32.7903L157.677 32.7792L158.011 32.8237L158.345 32.7541L158.676 32.7792L159.011 32.7931L159.345 32.7875L159.679 32.8154L160.013 32.7959L160.347 32.8181L160.681 32.7875L161.016 32.7457L161.35 32.7792L161.684 32.7708L162.018 32.8516H162.35L162.684 32.8571L163.018 32.7987L163.352 32.8348L163.686 32.8014L164.02 32.7959L164.352 32.8265L164.689 32.8432L165.023 32.7569L165.357 32.7513L165.691 32.7485L166.025 32.8293L166.36 32.7457L166.694 32.8154L167.025 32.8042L167.359 32.8098L167.693 32.8543L168.028 32.8348L168.365 32.7624L168.699 32.7903L169.033 32.8404L169.367 32.7652L169.701 32.8042L170.035 32.8571L170.37 32.807L170.704 32.7959L171.038 32.8516L171.372 32.7987L171.706 32.7652L172.038 32.7485L172.372 32.7792L172.706 32.8209L173.037 32.8098L173.372 32.7485L173.706 32.8181L174.04 32.8404L174.374 32.7959L174.711 32.768L175.043 32.8543L175.377 32.8126L175.711 32.846L176.045 32.8237L176.382 32.8404L176.716 32.7959L177.05 32.7764L177.385 32.7959L177.719 32.7597L178.056 32.7513L178.39 32.7457L178.724 32.7402L179.058 32.8181L179.395 32.7541L179.729 32.743L180.063 32.8432L180.398 32.8599L180.735 32.8627L181.069 32.7792L181.403 32.8516L181.74 32.7875L182.074 32.8376L182.411 32.743L182.745 32.7513L183.082 32.8293L183.416 32.8126L183.756 32.8042L184.085 32.8098L184.146 33.1356L184.138 33.4698L184.076 33.8012L184.046 34.1353L184.14 34.4695L184.085 34.8009L184.051 35.1323L184.04 35.4665L184.104 35.7978L184.057 36.1292L184.118 36.4634L184.051 36.7948L184.113 37.1262L184.087 37.4576L184.093 37.789L184.099 38.1204L184.124 38.4545L184.107 38.7859L184.118 39.1173L184.076 39.4487L184.079 39.7801L184.054 40.1115L184.118 40.4428L184.124 40.7742L184.118 41.1056L184.057 41.437L184.082 41.7684L184.048 42.1026L184.129 42.434L184.057 42.7654L184.143 43.0967L184.046 43.4281L184.121 43.7623L184.051 44.0937L184.118 44.4251L184.071 44.7592L184.057 45.0906L184.124 45.4248L184.032 45.7562L184.04 46.0904L184.101 46.4218L184.14 46.7559L184.113 47.0901L184.082 47.4243L184.035 47.7557L184.074 48.0898L184.079 48.424V48.7554L184.101 49.0896L184.057 49.421L184.079 49.7523L184.06 50.0865L184.087 50.4179L184.132 50.7493L184.035 51.0835L184.121 51.4149L184.079 51.7463L184.046 52.0804L184.104 52.4118L184.085 52.746L184.046 53.0774L184.065 53.4115L184.074 53.7429L184.076 54.0771L184.082 54.4085L184.048 54.7427L184.121 55.0768L184.071 55.4082V55.7424L184.074 56.0766L184.107 56.4107L184.032 56.7449L184.113 57.0763L184.048 57.4105L184.118 57.7419V58.076L184.115 58.4074L184.068 58.7416L184.054 59.0758L184.126 59.4072L184.093 59.7413L184.057 60.0727L184.071 60.4069L184.143 60.7411L184.124 61.0752L184.115 61.4066L184.04 61.7408L184.048 62.075L184.126 62.4091L184.104 62.7433L184.068 63.0747L184.135 63.4089L184.14 63.7431L184.113 64.0745L184.068 64.4086V64.7428L184.126 65.077L184.124 65.4084L184.149 65.7425L184.082 66.0767L184.035 66.4109L184.124 66.745L184.14 67.0792L184.071 67.4106L184.107 67.7448L184.113 68.079L184.071 68.4131L184.124 68.7473L184.032 69.0815L184.113 69.4156L184.076 69.747L184.115 70.0812L184.087 70.4154L184.046 70.7495L184.06 71.0837L184.124 71.4179L184.085 71.7521L184.043 72.0862L184.051 72.4204L184.135 72.7518L184.051 73.086L184.06 73.4174L184.124 73.7515L184.121 74.0829L184.06 74.4171L184.143 74.7513L184.057 75.0827L184.135 75.4196L184.126 75.7538L184.032 76.0852L184.068 76.4193L184.048 76.7535L184.138 77.0877L184.04 77.4219L184.099 77.756L184.06 78.0902L184.065 78.4244L184.04 78.7586L184.085 79.0927L184.099 79.4269L184.04 79.7611L184.06 80.0952L184.068 80.4322L184.149 80.7664L184.087 81.1005L184.09 81.4347L184.068 81.7689L184.09 82.1031L184.079 82.4373L184.143 82.7742L184.099 83.1084L184.082 83.4426L184.035 83.7795L184.126 84.1137L184.104 84.4506L184.115 84.7876L184.06 85.0911Z" fill="#FFB319"/>
<path d="M157.469 54.0024L154.718 45.7818C154.977 45.5367 155.183 45.2414 155.323 44.9138C155.464 44.5863 155.537 44.2335 155.536 43.877C155.537 43.5308 155.469 43.1879 155.337 42.868C155.205 42.548 155.011 42.2573 154.766 42.0124C154.521 41.7675 154.231 41.5732 153.911 41.4406C153.591 41.3081 153.248 41.2398 152.902 41.2398C152.556 41.2398 152.213 41.3081 151.893 41.4406C151.573 41.5732 151.283 41.7675 151.038 42.0124C150.794 42.2573 150.6 42.548 150.467 42.868C150.335 43.1879 150.267 43.5308 150.268 43.877C150.267 44.2335 150.34 44.5863 150.481 44.9138C150.621 45.2414 150.828 45.5367 151.086 45.7818L148.335 54.0024H157.469Z" fill="white"/>
<path d="M157.469 54.8915H148.335L147.499 53.7191L150.089 45.9858C149.631 45.3788 149.384 44.6383 149.387 43.8777C149.388 42.9434 149.759 42.0475 150.42 41.3865C151.08 40.7256 151.976 40.3536 152.91 40.3522C153.845 40.3536 154.74 40.7255 155.401 41.3864C156.062 42.0472 156.434 42.9432 156.435 43.8777C156.437 44.6386 156.19 45.379 155.731 45.9858L158.321 53.7191L157.469 54.8915ZM149.568 53.1148H156.235L153.876 46.0665L154.105 45.1392C154.279 44.9785 154.419 44.7835 154.514 44.5664C154.61 44.3494 154.66 44.115 154.662 43.8777C154.662 43.4144 154.478 42.97 154.15 42.6421C153.823 42.3142 153.379 42.1296 152.915 42.1288C152.452 42.1296 152.008 42.3142 151.681 42.6421C151.353 42.97 151.169 43.4144 151.169 43.8777C151.171 44.115 151.221 44.3494 151.317 44.5664C151.412 44.7835 151.552 44.9785 151.726 45.1392L151.955 46.0665L149.568 53.1148Z" fill="white"/>
<path d="M126.468 31.7906L126.805 31.8435L127.142 31.7934L127.479 31.8352L127.813 31.746L128.15 31.7767L128.484 31.8129L128.821 31.8686L129.155 31.7962H129.495L129.832 31.7572L130.169 31.7711L130.506 31.7878L130.84 31.8324L131.177 31.863L131.514 31.7683L131.851 31.7934L132.188 31.8157L132.525 31.7627L132.862 31.8073L133.199 31.8435L133.538 31.8491L133.875 31.8686L134.212 31.7516L134.549 31.7795L134.886 31.7989L135.226 31.7962L135.563 31.8435L135.9 31.8324L136.237 31.7711L136.574 31.8574L136.911 31.7432L137.251 31.8129L137.587 31.8324L137.924 31.7962L138.264 31.8268H138.601L138.941 31.8463L139.281 31.8157L139.62 31.8129" fill="white"/>
<path d="M133.825 32.7574L133.104 32.7268L132.547 32.6599L132.341 32.6934H132.138L131.614 32.6572L131.43 32.7101L131.104 32.7407L129.873 32.6378L129.503 32.6766H129.261L129.016 32.7295H128.682L128.373 32.6795L127.896 32.6293L127.715 32.6795L127.378 32.7018L127.164 32.6766L126.949 32.7101H126.671L126.334 32.6572C126.219 32.6392 126.108 32.5987 126.008 32.5378C125.909 32.4769 125.822 32.3969 125.754 32.3024C125.685 32.208 125.636 32.1009 125.609 31.9874C125.582 31.8738 125.577 31.756 125.596 31.6408C125.633 31.4082 125.761 31.1996 125.952 31.0613C126.142 30.9229 126.38 30.8658 126.613 30.9027L126.813 30.9334L127.011 30.9027H127.253L127.417 30.9223L127.587 30.8777L127.902 30.8527L128.804 30.9557L128.974 30.9194L129.161 30.9H129.439L129.871 30.861L130.617 30.9L131.093 30.9557L131.269 30.9056L131.581 30.875L132.138 30.9139L132.371 30.875H132.65L133.26 30.9529L133.75 30.9669L133.92 30.9083L134.29 30.8582L134.914 30.9056H135.223H135.346L135.624 30.9417H135.822L136.1 30.8917L136.473 30.9056L136.56 30.9279L136.649 30.8944L137.111 30.8694L137.39 30.925H137.59L137.869 30.8944H138.041L138.339 30.9194H138.637L138.966 30.939L139.311 30.9111H139.656C139.891 30.9111 140.116 31.004 140.283 31.1694C140.449 31.3348 140.543 31.5593 140.545 31.7939C140.545 31.9106 140.523 32.0262 140.479 32.1342C140.435 32.2423 140.37 32.3407 140.289 32.4237C140.207 32.5067 140.109 32.5727 140.002 32.618C139.894 32.6634 139.779 32.6871 139.662 32.6878H139.358L138.921 32.7157L138.612 32.6962H138.303L137.969 32.6711L137.576 32.7018L137.108 32.6684L137.003 32.6461L136.894 32.6822L136.395 32.7018L136.242 32.6628L135.964 32.7045H135.627H135.485L135.206 32.6684H134.928L134.371 32.6322L134.215 32.6878L133.825 32.7574Z" fill="white"/>
<path d="M166.179 31.9137L166.516 31.8162L166.853 31.8664H167.187L167.524 31.819L167.858 31.8525L168.195 31.8942L168.532 31.8525L168.866 31.9276L169.203 31.9193L169.543 31.9249L169.88 31.8079L170.217 31.8274L170.551 31.8385L170.888 31.8023L171.225 31.8497L171.562 31.858L171.899 31.9054L172.236 31.8636L172.573 31.8413L172.91 31.8497L173.25 31.8719L173.587 31.8859L173.924 31.8246L174.26 31.8135L174.597 31.8469L174.934 31.8357L175.274 31.858L175.611 31.8413L175.948 31.8274L176.285 31.8747L176.622 31.9193L176.962 31.858L177.299 31.8719L177.636 31.8775L177.975 31.8413L178.312 31.8051L178.652 31.8692L178.992 31.8747L179.332 31.8385" fill="white"/>
<path d="M168.892 32.8129L168.68 32.7933L168.491 32.7515L168.304 32.7738H168.09L167.533 32.7125L167.173 32.7544H166.714L166.569 32.7321L166.416 32.7767C166.303 32.8112 166.184 32.8228 166.067 32.8108C165.949 32.7989 165.835 32.7635 165.732 32.7069C165.628 32.6504 165.536 32.5738 165.463 32.4815C165.389 32.3892 165.334 32.2832 165.302 32.1696C165.268 32.0566 165.256 31.9379 165.268 31.8204C165.28 31.7029 165.315 31.5888 165.372 31.4851C165.428 31.3813 165.505 31.29 165.597 31.2162C165.689 31.1425 165.796 31.0879 165.909 31.0557L166.246 30.9582L166.619 30.9331L166.898 30.972H167.107L167.385 30.9331H167.605L168.184 30.9972L168.415 30.9693L168.711 30.9832L168.942 31.0362H169.22H169.401L169.588 30.9693L169.93 30.922L170.521 30.9499L170.799 30.922H171.016L171.295 30.961L171.688 30.9776L171.908 31.0083L172.186 30.9776L172.604 30.9526H172.98L173.537 30.986L173.913 30.9247H174.25H174.361L174.639 30.9526H174.918L175.288 30.972L175.923 30.9443H176.082L176.608 31.0166L176.812 30.9805L177.006 30.9666L177.605 30.9832L178.229 30.9191H178.488L178.766 30.9693H178.975L179.254 30.9414C179.37 30.9287 179.487 30.939 179.599 30.9718C179.711 31.0045 179.816 31.0591 179.906 31.1323C179.997 31.2056 180.073 31.2961 180.128 31.3986C180.184 31.5011 180.219 31.6135 180.231 31.7295C180.244 31.8455 180.234 31.9629 180.201 32.0749C180.168 32.1869 180.114 32.2913 180.04 32.3821C179.967 32.4729 179.877 32.5484 179.774 32.6041C179.672 32.6599 179.559 32.6949 179.443 32.7071L178.995 32.7488L178.505 32.7265L178.293 32.6875L177.639 32.7515L177.04 32.7348L176.798 32.7767H176.519L175.912 32.6959L175.33 32.7209H175.227L174.929 32.7015H174.634H174.522L174.244 32.6736H174.03L173.751 32.7237H173.551L172.598 32.6792L172.32 32.6986L172.008 32.7377H171.771L171.493 32.6959L171.108 32.6819L170.883 32.6485L170.526 32.6792L170.011 32.6569L169.838 32.7154L169.532 32.7655H169.215L168.892 32.8129Z" fill="white"/>
<path d="M140.602 48.6305C141.091 49.1243 141.545 49.6519 141.961 50.2094C142.386 50.7678 142.774 51.354 143.122 51.9639C143.868 53.239 144.372 54.641 144.609 56.0993C144.852 57.7116 144.637 59.3597 143.988 60.8556C143.305 62.3557 142.3 63.6869 141.045 64.7543L140.997 64.7933C140.551 65.1865 139.968 65.3865 139.375 65.3494C138.781 65.3124 138.227 65.0412 137.834 64.5956C137.638 64.3756 137.488 64.119 137.392 63.8405C137.296 63.5621 137.256 63.2673 137.274 62.9734C137.293 62.6795 137.37 62.3921 137.5 62.1281C137.631 61.864 137.812 61.6284 138.034 61.4349C138.168 61.317 138.314 61.2151 138.471 61.1314C139.419 60.6654 140.255 60.0005 140.922 59.182C141.576 58.3235 141.97 57.2949 142.055 56.219C142.139 55.0016 141.999 53.7793 141.64 52.6128C141.274 51.3706 140.751 50.1802 140.084 49.0705V49.0538C140.038 48.9769 140.024 48.8848 140.045 48.7977C140.066 48.7106 140.121 48.6355 140.198 48.5887C140.261 48.5508 140.334 48.5344 140.407 48.5419C140.48 48.5495 140.548 48.5806 140.602 48.6305V48.6305Z" fill="#191919"/>
<path d="M138.135 85.2229H56.034V57.8152H128.199C132.576 57.8152 136.773 59.5538 139.869 62.6485C142.964 65.7433 144.703 69.9408 144.704 74.3178V78.6592C144.702 80.4005 144.01 82.07 142.778 83.3007C141.546 84.5315 139.876 85.2229 138.135 85.2229Z" fill="white"/>
<path d="M138.137 85.9182H56.0361L55.3399 85.222V57.8143L56.0361 57.1181H128.201C132.761 57.1232 137.134 58.9373 140.358 62.1621C143.583 65.3869 145.397 69.7591 145.402 74.3196V78.6583C145.398 80.5834 144.631 82.4282 143.269 83.7889C141.907 85.1496 140.062 85.9152 138.137 85.9182V85.9182ZM56.7322 84.5258H138.137C139.695 84.5273 141.19 83.9101 142.293 82.8099C143.397 81.7097 144.018 80.2165 144.021 78.6583V74.3252C144.017 70.1337 142.35 66.1151 139.386 63.1513C136.422 60.1874 132.403 58.5204 128.212 58.516H56.7434L56.7322 84.5258Z" fill="#191919"/>
<path d="M92.1211 65.4759C92.0878 65.4787 92.0543 65.4787 92.0209 65.4759L71.8174 62.5769C71.7267 62.5643 71.6394 62.5339 71.5606 62.4873C71.4817 62.4408 71.4129 62.3792 71.3581 62.3059C71.3032 62.2327 71.2633 62.1492 71.2408 62.0605C71.2184 61.9718 71.2137 61.8794 71.227 61.7888C71.24 61.6983 71.2706 61.6113 71.3173 61.5326C71.3639 61.454 71.4256 61.3853 71.4988 61.3305C71.572 61.2756 71.6552 61.2357 71.7438 61.2131C71.8324 61.1905 71.9246 61.1854 72.0151 61.1984L92.2186 64.0974C92.3092 64.1104 92.3962 64.1411 92.4749 64.1877C92.5535 64.2343 92.6223 64.296 92.6771 64.3692C92.7319 64.4424 92.7718 64.5257 92.7944 64.6143C92.8171 64.7029 92.822 64.795 92.809 64.8855C92.7838 65.0499 92.7005 65.1997 92.5744 65.308C92.4482 65.4163 92.2874 65.4759 92.1211 65.4759V65.4759Z" fill="#191919"/>
<path d="M129.281 78.8257H121.625C120.087 78.8253 118.601 79.3841 117.444 80.398C116.287 81.4119 115.539 82.8117 115.337 84.3368C115.325 84.4422 115.335 84.5492 115.367 84.6505C115.399 84.7518 115.452 84.8451 115.523 84.9242C115.594 85.0033 115.681 85.0662 115.778 85.109C115.875 85.1518 115.98 85.1734 116.086 85.1722H136.023" fill="white"/>
<path d="M136.022 85.8631H116.086C115.878 85.8627 115.673 85.8181 115.484 85.7321C115.294 85.6462 115.126 85.5209 114.989 85.3646C114.856 85.214 114.756 85.0367 114.697 84.8446C114.638 84.6525 114.621 84.45 114.646 84.2507C114.87 82.5575 115.701 81.0031 116.985 79.8763C118.268 78.7496 119.917 78.127 121.625 78.1242H129.28C129.465 78.1242 129.642 78.1974 129.773 78.328C129.903 78.4586 129.976 78.6357 129.976 78.8204C129.976 79.005 129.903 79.182 129.773 79.3126C129.642 79.4432 129.465 79.5166 129.28 79.5166H121.625C120.256 79.5181 118.934 80.0162 117.905 80.9186C116.875 81.821 116.208 83.0664 116.028 84.4234C116.032 84.4352 116.04 84.4453 116.051 84.4527C116.061 84.4601 116.073 84.4644 116.086 84.4651H136.022C136.207 84.4651 136.384 84.5384 136.514 84.6689C136.645 84.7995 136.718 84.9767 136.718 85.1613C136.719 85.2532 136.702 85.3443 136.667 85.4294C136.632 85.5146 136.581 85.592 136.516 85.6572C136.452 85.7224 136.375 85.7742 136.29 85.8095C136.205 85.8448 136.114 85.8631 136.022 85.8631V85.8631Z" fill="#191919"/>
<path d="M129.646 78.8251C129.646 76.3255 130.639 73.9282 132.406 72.1605C134.173 70.3928 136.57 69.3993 139.07 69.3986" fill="white"/>
<path d="M129.645 79.5218C129.554 79.5222 129.463 79.5045 129.378 79.4696C129.294 79.4348 129.217 79.3834 129.152 79.3187C129.087 79.254 129.036 79.177 129.001 79.0924C128.966 79.0078 128.949 78.9172 128.949 78.8256C128.952 76.1423 130.019 73.5698 131.916 71.6721C133.813 69.7745 136.386 68.7066 139.069 68.7029C139.254 68.7029 139.431 68.7764 139.561 68.9069C139.692 69.0375 139.765 69.2145 139.765 69.3991C139.765 69.5838 139.692 69.7608 139.561 69.8914C139.431 70.0219 139.254 70.0953 139.069 70.0953C136.755 70.0983 134.536 71.0191 132.9 72.6558C131.264 74.2924 130.344 76.5114 130.341 78.8256C130.341 79.0103 130.268 79.1873 130.138 79.3179C130.007 79.4484 129.83 79.5218 129.645 79.5218V79.5218Z" fill="#191919"/>
<path d="M109.111 78.7253H99.9216C98.1916 78.7253 96.5325 79.4123 95.3089 80.6353C94.0854 81.8583 93.3976 83.5172 93.3969 85.2472H105.786" fill="white"/>
<path d="M105.771 85.9439H93.3812L92.685 85.2478C92.6909 83.3347 93.4537 81.5017 94.8067 80.1492C96.1596 78.7968 97.993 78.0348 99.906 78.0296H109.096C109.28 78.0296 109.457 78.1029 109.588 78.2335C109.719 78.364 109.792 78.5412 109.792 78.7258C109.792 78.9105 109.719 79.0875 109.588 79.2181C109.457 79.3486 109.28 79.422 109.096 79.422H99.906C98.4824 79.4262 97.1091 79.9493 96.0438 80.8937C94.9784 81.838 94.2941 83.1387 94.1192 84.5516H105.771C105.955 84.5516 106.132 84.6248 106.263 84.7554C106.394 84.8859 106.467 85.0631 106.467 85.2478C106.467 85.4324 106.394 85.6094 106.263 85.74C106.132 85.8705 105.955 85.9439 105.771 85.9439Z" fill="#191919"/>
<path d="M103.282 79.4218C103.098 79.4218 102.921 79.3484 102.79 79.2178C102.66 79.0873 102.586 78.9102 102.586 78.7256V58.4774C102.586 58.2927 102.66 58.1157 102.79 57.9852C102.921 57.8546 103.098 57.7812 103.282 57.7812C103.467 57.7812 103.644 57.8546 103.775 57.9852C103.905 58.1157 103.979 58.2927 103.979 58.4774V78.7256C103.979 78.9102 103.905 79.0873 103.775 79.2178C103.644 79.3484 103.467 79.4218 103.282 79.4218V79.4218Z" fill="#191919"/>
<path d="M45.627 57.8225H56.0365V85.247H45.627C42.0235 85.247 38.5677 83.8155 36.0196 81.2675C33.4716 78.7194 32.0401 75.2636 32.0401 71.6601V71.4095C32.0401 67.806 33.4716 64.3501 36.0196 61.802C38.5677 59.254 42.0235 57.8225 45.627 57.8225V57.8225Z" fill="#191919"/>
<path d="M56.0358 85.9438H45.6263C41.8398 85.9393 38.2097 84.4329 35.5325 81.7552C32.8553 79.0775 31.3496 75.4471 31.346 71.6606V71.41C31.3496 67.6235 32.8553 63.9931 35.5325 61.3154C38.2097 58.6376 41.8398 57.1313 45.6263 57.1269H56.0358L56.732 57.8231V85.2476L56.0358 85.9438ZM45.6263 58.5193C42.2088 58.523 38.9325 59.8824 36.5163 62.2991C34.1 64.7159 32.7413 67.9926 32.7383 71.41V71.6606C32.742 75.0779 34.101 78.3541 36.517 80.7707C38.9331 83.1873 42.2091 84.5469 45.6263 84.5514H55.3396V58.5193H45.6263Z" fill="#191919"/>
<path d="M69.7125 32.4317C70.9071 32.5905 72.1018 32.752 73.2965 32.8968L74.3909 33.0333C74.8389 33.0903 75.2826 33.1767 75.7192 33.2922C75.937 33.3467 76.1518 33.4127 76.3625 33.4899C76.5742 33.5651 76.7886 33.6292 76.9947 33.7211C77.4052 33.892 77.8042 34.0892 78.1894 34.3115C78.948 34.745 79.6489 35.2728 80.2752 35.8821C80.5799 36.1842 80.8654 36.505 81.13 36.8428C81.2609 37.0154 81.4086 37.177 81.5144 37.3553L81.8569 37.8926C82.7132 39.3265 83.1851 40.9571 83.227 42.6268L83.213 43.2366V43.5374C83.213 43.6321 83.1964 43.6934 83.188 43.7714L83.0905 44.668L82.8928 46.4614L82.5002 50.0482C82.2217 52.4375 81.9934 54.8296 81.74 57.2189C81.7106 57.468 81.5841 57.6955 81.3881 57.8519C81.192 58.0083 80.9422 58.081 80.6929 58.0544C80.4799 58.0295 80.2816 57.9335 80.1299 57.7819C79.9783 57.6303 79.8823 57.4319 79.8574 57.2189C79.604 54.8296 79.3673 52.4375 79.0972 50.0482L78.7045 46.4614L78.5068 44.668L78.4093 43.7714C78.4093 43.7018 78.3926 43.6127 78.3815 43.557L78.3481 43.4122L78.2868 43.1337C78.0882 42.414 77.7041 41.759 77.1729 41.2344L76.978 41.0534C76.9139 40.9949 76.8359 40.9475 76.7663 40.8918C76.6292 40.7904 76.4859 40.6974 76.3375 40.6134C76.0457 40.4528 75.7325 40.3347 75.4074 40.2626C75.2534 40.2258 75.0971 40.1996 74.9395 40.1845C74.8625 40.1803 74.7854 40.1803 74.7084 40.1845C74.6316 40.1762 74.5541 40.1762 74.4772 40.1845C74.3265 40.1905 74.1765 40.2092 74.0289 40.2403L73.9175 40.2626L73.7755 40.282L73.3271 40.3377C72.1324 40.4826 70.9378 40.6413 69.7431 40.8028C68.6355 40.9492 67.515 40.6503 66.6275 39.9716C65.74 39.2929 65.1579 38.2899 65.009 37.1826C64.8619 36.0748 65.1605 34.954 65.8393 34.0663C66.5181 33.1786 67.5216 32.5967 68.6292 32.4485C68.9881 32.3967 69.3521 32.391 69.7125 32.4317V32.4317Z" fill="#191919"/>
<path d="M99.987 29.4487L95.4645 29.0171C94.6143 28.9679 93.7784 29.2515 93.1337 29.8079C92.4064 30.417 91.9334 31.2763 91.8082 32.2167L91.4127 37.2014L90.6246 47.2072L89.8644 57.2129C89.8452 57.4642 89.7271 57.6976 89.536 57.8621C89.345 58.0265 89.0966 58.1085 88.8452 58.0901C88.6186 58.0727 88.4057 57.9746 88.2453 57.8136C88.0848 57.6527 87.9874 57.4396 87.9707 57.2129L87.2105 47.2072L86.4224 37.2014L86.0298 32.1888C85.9722 30.9942 86.1307 29.7989 86.4976 28.6605C86.8733 27.5007 87.4513 26.4165 88.2047 25.4581C88.9732 24.4805 89.9107 23.6487 90.9727 23.0019C92.061 22.3417 93.2604 21.8849 94.5122 21.654C94.8258 21.5904 95.1429 21.5449 95.4617 21.5176L96.2359 21.4451L97.4863 21.3311L99.9926 21.0915C101.102 20.986 102.207 21.325 103.067 22.0341C103.926 22.7431 104.469 23.7642 104.576 24.8732C104.682 25.9821 104.343 27.0876 103.634 27.9465C102.925 28.8055 101.903 29.3478 100.795 29.4542C100.536 29.4779 100.276 29.4779 100.018 29.4542L99.987 29.4487Z" fill="#191919"/>
<path d="M81.8109 67.8198C81.8109 71.6822 79.583 74.8123 76.8623 74.8123C74.1416 74.8123 71.9138 71.6822 71.9138 67.8198" fill="white"/>
<path d="M76.8643 75.5091C73.7538 75.5091 71.2196 72.0615 71.2196 67.8203C71.2196 67.6357 71.2929 67.4585 71.4235 67.328C71.5541 67.1974 71.7312 67.1241 71.9158 67.1241C72.0073 67.1238 72.098 67.1415 72.1826 67.1764C72.2673 67.2112 72.3442 67.2624 72.4089 67.3271C72.4736 67.3919 72.5249 67.4688 72.5597 67.5534C72.5946 67.638 72.6124 67.7288 72.612 67.8203C72.612 71.2929 74.5196 74.1167 76.8643 74.1167C79.2091 74.1167 81.1167 71.2929 81.1167 67.8203C81.1167 67.6357 81.19 67.4585 81.3206 67.328C81.4512 67.1974 81.6283 67.1241 81.8129 67.1241C81.9975 67.1241 82.1746 67.1974 82.3051 67.328C82.4357 67.4585 82.5091 67.6357 82.5091 67.8203C82.5091 72.0615 79.9722 75.5091 76.8643 75.5091Z" fill="#191919"/>
<path d="M81.812 67.8198C81.812 71.6822 84.0258 74.8123 86.7605 74.8123C89.4951 74.8123 91.7063 71.6822 91.7063 67.8198" fill="white"/>
<path d="M86.7596 75.509C83.6462 75.509 81.1149 72.0615 81.1149 67.8203C81.1149 67.6357 81.1882 67.4585 81.3188 67.328C81.4494 67.1974 81.6265 67.1241 81.8111 67.1241C81.9957 67.1241 82.1728 67.1974 82.3033 67.328C82.4339 67.4585 82.5073 67.6357 82.5073 67.8203C82.5073 71.2929 84.4148 74.1167 86.7596 74.1167C89.1044 74.1167 91.0091 71.2929 91.0091 67.8203C91.0091 67.6357 91.0825 67.4585 91.2131 67.328C91.3437 67.1974 91.5207 67.1241 91.7053 67.1241C91.89 67.1241 92.0671 67.1974 92.1976 67.328C92.3282 67.4585 92.4015 67.6357 92.4015 67.8203C92.4015 72.0615 89.8702 75.509 86.7596 75.509Z" fill="#191919"/>
<path d="M68.3146 77.628C68.8113 77.628 69.214 77.2253 69.214 76.7285C69.214 76.2318 68.8113 75.829 68.3146 75.829C67.8178 75.829 67.4151 76.2318 67.4151 76.7285C67.4151 77.2253 67.8178 77.628 68.3146 77.628Z" fill="#191919"/>
<path d="M63.7007 77.628C64.1975 77.628 64.6002 77.2253 64.6002 76.7285C64.6002 76.2318 64.1975 75.829 63.7007 75.829C63.2039 75.829 62.8012 76.2318 62.8012 76.7285C62.8012 77.2253 63.2039 77.628 63.7007 77.628Z" fill="#191919"/>
<path d="M66.111 81.6245C66.6078 81.6245 67.0105 81.2218 67.0105 80.725C67.0105 80.2283 66.6078 79.8256 66.111 79.8256C65.6142 79.8256 65.2115 80.2283 65.2115 80.725C65.2115 81.2218 65.6142 81.6245 66.111 81.6245Z" fill="#191919"/>
<path d="M61.4942 81.6245C61.991 81.6245 62.3937 81.2218 62.3937 80.725C62.3937 80.2283 61.991 79.8256 61.4942 79.8256C60.9974 79.8256 60.5947 80.2283 60.5947 80.725C60.5947 81.2218 60.9974 81.6245 61.4942 81.6245Z" fill="#191919"/>
<path d="M209.852 85.9441H0.696194C0.511552 85.9441 0.334457 85.8707 0.203895 85.7401C0.0733333 85.6095 0 85.4325 0 85.2479C0 85.0632 0.0733333 84.8861 0.203895 84.7555C0.334457 84.625 0.511552 84.5517 0.696194 84.5517H209.852C209.944 84.5513 210.034 84.569 210.119 84.6039C210.204 84.6388 210.281 84.69 210.345 84.7547C210.41 84.8194 210.461 84.8963 210.496 84.981C210.531 85.0656 210.549 85.1564 210.548 85.2479C210.549 85.3394 210.531 85.43 210.496 85.5147C210.461 85.5993 210.41 85.6762 210.345 85.7409C210.281 85.8056 210.204 85.8569 210.119 85.8917C210.034 85.9266 209.944 85.9444 209.852 85.9441V85.9441Z" fill="#191919"/>
<path d="M177.761 85.0626C177.28 86.072 176.573 86.9576 175.696 87.6513C174.819 88.345 173.794 88.8285 172.701 89.0644C171.105 89.4153 169.438 89.2191 167.967 88.5074C166.357 87.7417 165.083 86.4133 164.386 84.773C163.974 83.8132 163.772 82.7763 163.794 81.732C163.816 80.6878 164.062 79.6604 164.514 78.719C164.962 77.7759 165.608 76.94 166.407 76.2675C167.206 75.5949 168.139 75.1015 169.145 74.8203C170.86 74.3333 172.693 74.4907 174.3 75.263C175.771 75.967 176.964 77.1435 177.689 78.6047C178.194 79.6038 178.464 80.7055 178.476 81.8252C178.489 82.9448 178.244 84.0525 177.761 85.0626V85.0626Z" fill="white"/>
<path d="M171.122 89.9398C169.929 89.9376 168.752 89.6673 167.677 89.1489C165.916 88.309 164.522 86.8555 163.756 85.061C163.308 84.0097 163.088 82.8748 163.112 81.732C163.136 80.5892 163.403 79.4646 163.896 78.4331C164.389 77.4024 165.097 76.4888 165.972 75.7536C166.847 75.0184 167.869 74.4784 168.969 74.1696C170.847 73.6409 172.852 73.8141 174.611 74.657C176.224 75.4224 177.531 76.7086 178.323 78.3079C178.876 79.4005 179.169 80.6056 179.181 81.8298C179.192 83.054 178.922 84.2644 178.39 85.3672C177.865 86.4742 177.092 87.4454 176.131 88.2055C175.17 88.9657 174.047 89.4943 172.849 89.7505C172.282 89.8754 171.703 89.9388 171.122 89.9398V89.9398ZM171.144 75.2612C170.536 75.2615 169.931 75.3459 169.345 75.512C168.436 75.7669 167.591 76.213 166.868 76.8205C166.145 77.428 165.56 78.1829 165.151 79.0347C164.744 79.8871 164.523 80.8165 164.503 81.7611C164.484 82.7057 164.666 83.6437 165.037 84.5123C165.67 85.9963 166.823 87.1984 168.279 87.8931C169.606 88.5348 171.111 88.7094 172.551 88.3887C173.541 88.1783 174.47 87.7421 175.264 87.1142C176.059 86.4863 176.698 85.6836 177.132 84.7685C177.574 83.8555 177.799 82.8528 177.79 81.8384C177.781 80.824 177.537 79.8253 177.079 78.9205C176.426 77.5993 175.347 76.5368 174.015 75.9045C173.118 75.4788 172.137 75.259 171.144 75.2612V75.2612Z" fill="#191919"/>
<path d="M169.031 80.8863C168.583 81.8297 167.937 82.6659 167.138 83.3385C166.338 84.011 165.404 84.5043 164.398 84.785C163.986 83.8252 163.784 82.7883 163.806 81.744C163.828 80.6998 164.073 79.6723 164.526 78.7308C164.974 77.7878 165.62 76.952 166.419 76.2795C167.217 75.6069 168.151 75.1133 169.157 74.8321C169.571 75.7913 169.774 76.8283 169.752 77.8728C169.731 78.9173 169.485 79.9451 169.031 80.8863V80.8863Z" fill="white"/>
<path d="M164.585 85.4585L163.75 85.0604C163.3 84.0095 163.079 82.8746 163.103 81.7317C163.126 80.5888 163.394 79.464 163.886 78.4325C164.38 77.4018 165.088 76.4882 165.963 75.753C166.838 75.0177 167.86 74.4777 168.96 74.169L169.796 74.5644C170.246 75.6148 170.466 76.7492 170.443 77.8917C170.419 79.0342 170.152 80.1584 169.659 81.1894V81.1894C169.166 82.2211 168.458 83.1356 167.583 83.8718C166.708 84.608 165.686 85.149 164.585 85.4585ZM168.737 75.7118C167.163 76.3224 165.88 77.5105 165.151 79.0341C164.422 80.5593 164.301 82.3048 164.814 83.9157C166.39 83.3048 167.674 82.1156 168.403 80.5907V80.5907C169.132 79.0665 169.252 77.3212 168.737 75.7118V75.7118Z" fill="#191919"/>
<path d="M177.761 85.0641C177.28 86.0735 176.573 86.9591 175.696 87.6528C174.819 88.3465 173.794 88.8299 172.701 89.0658C172.198 88.0665 171.932 86.9651 171.922 85.8465C171.911 84.7278 172.158 83.6218 172.643 82.6135C173.124 81.6046 173.83 80.7193 174.707 80.0261C175.583 79.3328 176.607 78.8499 177.7 78.6145C178.203 79.6133 178.469 80.7141 178.48 81.8322C178.491 82.9503 178.245 84.0559 177.761 85.0641V85.0641Z" fill="white"/>
<path d="M172.85 89.7496L172.079 89.3792C171.526 88.2861 171.233 87.0803 171.222 85.8555C171.21 84.6307 171.482 83.42 172.015 82.317C172.539 81.2103 173.312 80.2394 174.272 79.4796C175.233 78.7199 176.356 78.1919 177.553 77.9366L178.325 78.3041C178.877 79.3972 179.171 80.6027 179.182 81.8274C179.194 83.0521 178.923 84.263 178.392 85.3663C177.866 86.4733 177.093 87.4445 176.132 88.2046C175.171 88.9648 174.048 89.4934 172.85 89.7496V89.7496ZM177.306 79.4459C176.427 79.7122 175.614 80.1591 174.919 80.7581C174.224 81.3571 173.661 82.0948 173.268 82.924C172.868 83.7516 172.646 84.6536 172.616 85.572C172.586 86.4904 172.748 87.405 173.092 88.257C173.971 87.9896 174.784 87.5416 175.479 86.9417C176.175 86.3418 176.737 85.6031 177.13 84.7732C177.532 83.9458 177.755 83.0433 177.786 82.1242C177.816 81.2051 177.654 80.2898 177.308 79.4375L177.306 79.4459Z" fill="#191919"/>
</svg>
